<svg width="20" height="20" viewBox="0 0 20 20" fill="none" xmlns="http://www.w3.org/2000/svg">
<path d="M8.33325 1.66675C7.83325 1.66675 7.49992 2.00008 7.49992 2.50008V17.5001C7.49992 18.0001 7.83325 18.3334 8.33325 18.3334C8.83325 18.3334 9.16658 18.0001 9.16658 17.5001V2.50008C9.16658 2.00008 8.83325 1.66675 8.33325 1.66675ZM4.16659 10.0001C3.66659 10.0001 3.33325 10.3334 3.33325 10.8334V17.5001C3.33325 18.0001 3.66659 18.3334 4.16659 18.3334C4.66659 18.3334 4.99992 18.0001 4.99992 17.5001V10.8334C4.99992 10.3334 4.66659 10.0001 4.16659 10.0001ZM12.4999 6.66675C11.9999 6.66675 11.6666 7.00008 11.6666 7.50008V17.5001C11.6666 18.0001 11.9999 18.3334 12.4999 18.3334C12.9999 18.3334 13.3333 18.0001 13.3333 17.5001V7.50008C13.3333 7.00008 12.9999 6.66675 12.4999 6.66675ZM16.6666 13.3334C16.1666 13.3334 15.8333 13.6667 15.8333 14.1667V17.5001C15.8333 18.0001 16.1666 18.3334 16.6666 18.3334C17.1666 18.3334 17.4999 18.0001 17.4999 17.5001V14.1667C17.4999 13.6667 17.1666 13.3334 16.6666 13.3334Z" fill="#6A6779"/>
</svg>
