<svg width="18" height="18" viewBox="0 0 18 18" fill="none" xmlns="http://www.w3.org/2000/svg">
<path d="M16.7668 6.95842L15.1918 6.43342L15.9334 4.95008C16.0086 4.79482 16.0337 4.62005 16.0054 4.44989C15.977 4.27973 15.8966 4.12257 15.7751 4.00008L14.0001 2.22508C13.8769 2.10182 13.7183 2.02026 13.5464 1.99186C13.3745 1.96345 13.198 1.98965 13.0417 2.06675L11.5584 2.80842L11.0334 1.23342C10.978 1.06924 10.8727 0.926439 10.7323 0.824874C10.5919 0.723309 10.4234 0.668038 10.2501 0.666751H7.75008C7.57538 0.6663 7.40495 0.720767 7.26289 0.822452C7.12083 0.924138 7.01432 1.0679 6.95842 1.23342L6.43342 2.80842L4.95008 2.06675C4.79482 1.99157 4.62005 1.96642 4.44989 1.99478C4.27973 2.02314 4.12257 2.10361 4.00008 2.22508L2.22508 4.00008C2.10182 4.12322 2.02026 4.2819 1.99186 4.4538C1.96345 4.6257 1.98965 4.80218 2.06675 4.95842L2.80842 6.44175L1.23342 6.96675C1.06924 7.0222 0.926439 7.12744 0.824874 7.26784C0.723309 7.40824 0.668038 7.5768 0.666751 7.75008V10.2501C0.6663 10.4248 0.720767 10.5952 0.822452 10.7373C0.924138 10.8793 1.0679 10.9858 1.23342 11.0417L2.80842 11.5667L2.06675 13.0501C1.99157 13.2053 1.96642 13.3801 1.99478 13.5503C2.02314 13.7204 2.10361 13.8776 2.22508 14.0001L4.00008 15.7751C4.12322 15.8983 4.2819 15.9799 4.4538 16.0083C4.6257 16.0367 4.80218 16.0105 4.95842 15.9334L6.44175 15.1918L6.96675 16.7668C7.02266 16.9323 7.12917 17.076 7.27123 17.1777C7.41329 17.2794 7.58371 17.3339 7.75842 17.3334H10.2584C10.4331 17.3339 10.6035 17.2794 10.7456 17.1777C10.8877 17.076 10.9942 16.9323 11.0501 16.7668L11.5751 15.1918L13.0584 15.9334C13.2127 16.0067 13.3857 16.0308 13.5542 16.0025C13.7226 15.9742 13.8783 15.8948 14.0001 15.7751L15.7751 14.0001C15.8983 13.8769 15.9799 13.7183 16.0083 13.5464C16.0367 13.3745 16.0105 13.198 15.9334 13.0417L15.1918 11.5584L16.7668 11.0334C16.9309 10.978 17.0737 10.8727 17.1753 10.7323C17.2769 10.5919 17.3321 10.4234 17.3334 10.2501V7.75008C17.3339 7.57538 17.2794 7.40495 17.1777 7.26289C17.076 7.12083 16.9323 7.01432 16.7668 6.95842ZM15.6667 9.65008L14.6667 9.98342C14.4368 10.058 14.2258 10.1817 14.0485 10.346C13.8711 10.5103 13.7316 10.7112 13.6396 10.9347C13.5477 11.1583 13.5054 11.3992 13.5159 11.6407C13.5263 11.8823 13.5892 12.1186 13.7001 12.3334L14.1751 13.2834L13.2584 14.2001L12.3334 13.7001C12.1197 13.5936 11.8856 13.5343 11.647 13.5262C11.4084 13.518 11.1708 13.5613 10.9503 13.6529C10.7299 13.7446 10.5317 13.8825 10.3692 14.0574C10.2067 14.2324 10.0836 14.4402 10.0084 14.6667L9.67508 15.6667H8.35008L8.01675 14.6667C7.94216 14.4368 7.81844 14.2258 7.65417 14.0485C7.48989 13.8711 7.28901 13.7316 7.06543 13.6396C6.84186 13.5477 6.60096 13.5054 6.35944 13.5159C6.11792 13.5263 5.88155 13.5892 5.66675 13.7001L4.71675 14.1751L3.80008 13.2584L4.30008 12.3334C4.411 12.1186 4.47385 11.8823 4.48429 11.6407C4.49473 11.3992 4.4525 11.1583 4.36053 10.9347C4.26857 10.7112 4.12907 10.5103 3.9517 10.346C3.77434 10.1817 3.56337 10.058 3.33342 9.98342L2.33342 9.65008V8.35008L3.33342 8.01675C3.56337 7.94216 3.77434 7.81844 3.9517 7.65417C4.12907 7.48989 4.26857 7.28901 4.36053 7.06543C4.4525 6.84186 4.49473 6.60096 4.48429 6.35944C4.47385 6.11792 4.411 5.88155 4.30008 5.66675L3.82508 4.74175L4.74175 3.82508L5.66675 4.30008C5.88155 4.411 6.11792 4.47385 6.35944 4.48429C6.60096 4.49473 6.84186 4.4525 7.06543 4.36053C7.28901 4.26857 7.48989 4.12907 7.65417 3.9517C7.81844 3.77434 7.94216 3.56337 8.01675 3.33342L8.35008 2.33342H9.65008L9.98342 3.33342C10.058 3.56337 10.1817 3.77434 10.346 3.9517C10.5103 4.12907 10.7112 4.26857 10.9347 4.36053C11.1583 4.4525 11.3992 4.49473 11.6407 4.48429C11.8823 4.47385 12.1186 4.411 12.3334 4.30008L13.2834 3.82508L14.2001 4.74175L13.7001 5.66675C13.5936 5.88045 13.5343 6.11454 13.5262 6.35316C13.518 6.59178 13.5613 6.82936 13.6529 7.04982C13.7446 7.27028 13.8825 7.46847 14.0574 7.63098C14.2324 7.79349 14.4402 7.91652 14.6667 7.99175L15.6667 8.32508V9.65008ZM9.00008 5.66675C8.34081 5.66675 7.69635 5.86225 7.14818 6.22852C6.60002 6.59479 6.17278 7.11538 5.92049 7.72447C5.66819 8.33356 5.60218 9.00378 5.7308 9.65038C5.85942 10.297 6.17689 10.8909 6.64306 11.3571C7.10924 11.8233 7.70318 12.1407 8.34978 12.2694C8.99639 12.398 9.66661 12.332 10.2757 12.0797C10.8848 11.8274 11.4054 11.4001 11.7716 10.852C12.1379 10.3038 12.3334 9.65935 12.3334 9.00008C12.3334 8.11603 11.9822 7.26818 11.3571 6.64306C10.732 6.01794 9.88414 5.66675 9.00008 5.66675ZM9.00008 10.6667C8.67045 10.6667 8.34821 10.569 8.07413 10.3859C7.80005 10.2027 7.58643 9.94243 7.46028 9.63789C7.33414 9.33334 7.30113 8.99823 7.36544 8.67493C7.42975 8.35163 7.58848 8.05466 7.82157 7.82157C8.05466 7.58848 8.35163 7.42975 8.67493 7.36544C8.99823 7.30113 9.33334 7.33414 9.63789 7.46028C9.94243 7.58643 10.2027 7.80005 10.3859 8.07413C10.569 8.34821 10.6667 8.67045 10.6667 9.00008C10.6667 9.44211 10.4912 9.86603 10.1786 10.1786C9.86603 10.4912 9.44211 10.6667 9.00008 10.6667Z" fill="#6A6779"/>
</svg>
