<svg width="16" height="17" viewBox="0 0 16 17" fill="none" xmlns="http://www.w3.org/2000/svg">
<path d="M11.3084 2.89167C11.4997 3.00031 11.7263 3.02886 11.9386 2.9711C12.1509 2.91334 12.3318 2.77394 12.4417 2.58333C12.5327 2.4228 12.6743 2.29699 12.8445 2.22565C13.0147 2.15431 13.2037 2.14146 13.382 2.18912C13.5602 2.23678 13.7176 2.34226 13.8295 2.48901C13.9413 2.63576 14.0013 2.81549 14 3C14 3.22101 13.9122 3.43297 13.756 3.58925C13.5997 3.74553 13.3877 3.83333 13.1667 3.83333C12.9457 3.83333 12.7337 3.92113 12.5774 4.07741C12.4212 4.23369 12.3334 4.44565 12.3334 4.66667C12.3334 4.88768 12.4212 5.09964 12.5774 5.25592C12.7337 5.4122 12.9457 5.5 13.1667 5.5C13.6055 5.49972 14.0364 5.38396 14.4163 5.16436C14.7962 4.94476 15.1116 4.62905 15.3308 4.24896C15.55 3.86886 15.6653 3.43777 15.6651 2.999C15.6649 2.56022 15.5493 2.12922 15.3298 1.74931C15.1103 1.36939 14.7946 1.05393 14.4146 0.834636C14.0345 0.61534 13.6035 0.49993 13.1647 0.5C12.7259 0.50007 12.2949 0.615619 11.9149 0.835036C11.535 1.05445 11.2194 1.37001 11 1.75C10.9449 1.84511 10.9092 1.95018 10.8949 2.05917C10.8806 2.16815 10.8879 2.27889 10.9166 2.385C10.9453 2.49112 10.9946 2.59052 11.0619 2.67747C11.1291 2.76443 11.2129 2.83722 11.3084 2.89167ZM14.8917 8.83333C14.673 8.80494 14.4519 8.86444 14.2769 8.99878C14.102 9.13311 13.9874 9.33134 13.9584 9.55C13.7835 10.9626 13.0981 12.2626 12.0314 13.205C10.9646 14.1474 9.59012 14.6673 8.1667 14.6667H3.50837L4.05003 14.125C4.20524 13.9689 4.29236 13.7577 4.29236 13.5375C4.29236 13.3173 4.20524 13.1061 4.05003 12.95C3.23749 12.1343 2.68452 11.0963 2.46078 9.96689C2.23704 8.83747 2.35252 7.6671 2.7927 6.60319C3.23288 5.53928 3.97805 4.62943 4.93436 3.98824C5.89067 3.34705 7.01534 3.0032 8.1667 3C8.38771 3 8.59968 2.9122 8.75596 2.75592C8.91224 2.59964 9.00003 2.38768 9.00003 2.16667C9.00003 1.94565 8.91224 1.73369 8.75596 1.57741C8.59968 1.42113 8.38771 1.33333 8.1667 1.33333C6.75773 1.33921 5.3789 1.74186 4.1882 2.49516C2.99749 3.24846 2.04306 4.32193 1.43426 5.5926C0.825448 6.86327 0.586888 8.27973 0.745906 9.67972C0.904924 11.0797 1.45509 12.4066 2.33337 13.5083L0.908368 14.9083C0.792737 15.0255 0.714407 15.1743 0.683262 15.336C0.652116 15.4976 0.669552 15.6649 0.733368 15.8167C0.795885 15.9688 0.90205 16.0991 1.03848 16.1911C1.17492 16.283 1.33551 16.3325 1.50003 16.3333H8.1667C9.99291 16.3336 11.7565 15.6675 13.1265 14.4601C14.4966 13.2526 15.3791 11.5868 15.6084 9.775C15.6236 9.66605 15.6171 9.55515 15.5893 9.44872C15.5615 9.34229 15.5128 9.24242 15.4462 9.15487C15.3796 9.06733 15.2963 8.99384 15.2011 8.93866C15.1059 8.88347 15.0008 8.84767 14.8917 8.83333ZM13.4834 6.39167C13.3317 6.32454 13.1634 6.30423 13 6.33333L12.85 6.38333L12.7 6.45833L12.575 6.56667C12.5001 6.64346 12.4407 6.734 12.4 6.83333C12.3508 6.93728 12.3279 7.05176 12.3334 7.16667C12.3309 7.27781 12.3508 7.38831 12.3917 7.49167C12.4348 7.59168 12.4971 7.68228 12.575 7.75833C12.6529 7.83557 12.7452 7.89667 12.8468 7.93814C12.9483 7.97961 13.057 8.00063 13.1667 8C13.3877 8 13.5997 7.9122 13.756 7.75592C13.9122 7.59964 14 7.38768 14 7.16667C14.0029 7.05735 13.98 6.9489 13.9334 6.85C13.8438 6.64975 13.6836 6.48954 13.4834 6.4V6.39167Z" fill="#6A6779"/>
</svg>
